<svg class="icon" viewBox="0 0 1496 1024" xmlns="http://www.w3.org/2000/svg" width="292.188" height="200"><defs><style/></defs><path d="M1425.129 329.76L772.699 33.451a16.184 16.184 0 00-13.392 0L106.82 329.76a16.184 16.184 0 00-9.497 14.696v213.203a16.184 16.184 0 1032.368 0V369.623l215.37 97.82v350.538A174.203 174.203 0 00519.082 992h493.768a174.203 174.203 0 00174.02-174.02V467.444l238.259-108.2a16.184 16.184 0 000-29.391zM1154.5 817.98a141.798 141.798 0 01-141.633 141.634h-493.73A141.798 141.798 0 01377.504 817.98V482.139l381.803 173.395a16.202 16.202 0 0013.391 0l381.803-173.395zM765.993 623.039L152.746 344.493 765.993 65.985l613.284 278.508z"/><path d="M631.506 887.548a16.404 16.404 0 01-1.837-.11c-76.915-8.836-109.32-58.454-122.95-98.519a223.27 223.27 0 01-10.82-82.867 16.184 16.184 0 0132.22 2.884c-.477 5.511-9.846 133.183 105.206 146.41a16.184 16.184 0 01-1.837 32.275zM121.04 733a89.021 89.021 0 1189.04-89.021A89.131 89.131 0 01121.04 733zm0-145.693a56.653 56.653 0 1056.653 56.653 56.727 56.727 0 00-56.653-56.653z"/></svg>