<svg t="1623902055169" class="icon" viewBox="0 0 1205 1024" version="1.1" xmlns="http://www.w3.org/2000/svg" p-id="8572" width="200" height="200"><path d="M1189.647059 1024 1084.235294 1024 783.058824 1024 722.823529 1024 481.882353 1024 421.647059 1024 120.470588 1024 15.058824 1024C6.746353 1024 0 1017.253647 0 1008.941176L0 978.823529C0 970.511059 6.746353 963.764706 15.058824 963.764706L120.470588 963.764706 120.470588 421.616941C120.470588 388.367059 147.425882 361.381647 180.705882 361.381647L421.647059 361.381647 421.647059 240.941176C421.647059 207.661176 448.602353 180.705882 481.882353 180.705882L722.823529 180.705882 722.823529 60.205176C722.823529 26.955294 749.778824-0.030118 783.058824-0.030118L1024-0.030118C1057.249882-0.030118 1084.235294 26.955294 1084.235294 60.205176L1084.235294 963.764706 1189.647059 963.764706C1197.959529 963.764706 1204.705882 970.511059 1204.705882 978.823529L1204.705882 1008.941176C1204.705882 1017.253647 1197.959529 1024 1189.647059 1024ZM421.647059 421.616941 180.705882 421.616941 180.705882 963.764706 421.647059 963.764706 421.647059 421.616941ZM722.823529 240.911059 481.882353 240.911059 481.882353 963.764706 722.823529 963.764706 722.823529 240.911059ZM1024 60.235294 783.058824 60.235294 783.058824 963.764706 1024 963.764706 1024 60.235294Z" p-id="8573"></path></svg>